# xmcd
#
# Track frame offsets:
# 150
# 19152
# 38105
# 51795
# 70737
# 88312
# 106632
# 124087
# 139505
# 156135
# 174805
# 195305
# 214232
#
# Disc length: 3019 seconds
#
#
# Revision: 0
# Processed by: cddbd v1.5.2PL0 Copyright (c) Steve Scherf et al.
# Submitted via: FreeRIP 2.951 
#
DISCID=a50bc90d
DTITLE=Gean and Roger - Gean &Roger
DYEAR=1999
DGENRE=Sertanejo
TTITLE0=Pra solidão eu dei tchau
TTITLE1=Raio de sol
TTITLE2=Quero fazer amor
TTITLE3=Se eu pudesse conversar com Deus
TTITLE4=Vou sair pra buscar
TTITLE5=Gostar sem amar
TTITLE6=Amargo gosto
TTITLE7=A vida e o rodeio
TTITLE8=Colibris
TTITLE9=Cada vez mais te quero
TTITLE10=Olhos de lince
TTITLE11=Nem que seja pra brincar
TTITLE12=Bom mineiro
EXTD=
EXTT0=
EXTT1=
EXTT2=
EXTT3=
EXTT4=
EXTT5=
EXTT6=
EXTT7=
EXTT8=
EXTT9=
EXTT10=
EXTT11=
EXTT12=
PLAYORDER=
